<?xml version="1.0" encoding="UTF-8"?>
<!DOCTYPE svg
PUBLIC "-//W3C//DTD SVG 1.1//EN"
       "http://www.w3.org/Graphics/SVG/1.1/DTD/svg11.dtd">
<svg viewBox="26 -2 1602 894" width="1576px" height="896px" xmlns="http://www.w3.org/2000/svg" version="1.1">
   <line x1="970" y1="360" x2="980" y2="360" style="stroke:#c00;stroke-width:1;"/>
   <line x1="1227" y1="121" x2="1237" y2="121" style="stroke:#c00;stroke-width:1;"/>
   <line x1="980" y1="360" x2="1227" y2="121" style="stroke:#c00;stroke-width:1;"/>
   <line x1="977.5" y1="360" x2="973.96446609407" y2="363.53553390593" style="stroke:#c00;stroke-width:2;"/>
   <line x1="977.5" y1="360" x2="973.96446609407" y2="356.46446609407" style="stroke:#c00;stroke-width:2;"/>
   <line x1="1232" y1="121" x2="1228.4644660941" y2="124.53553390593" style="stroke:#c00;stroke-width:2;"/>
   <line x1="1232" y1="121" x2="1228.4644660941" y2="117.46446609407" style="stroke:#c00;stroke-width:2;"/>
   <line x1="494" y1="333" x2="504" y2="333" style="stroke:#bbb;stroke-width:1;"/>
   <line x1="564" y1="451" x2="574" y2="451" style="stroke:#bbb;stroke-width:1;"/>
   <line x1="504" y1="333" x2="564" y2="451" style="stroke:#bbb;stroke-width:1;"/>
   <line x1="501.5" y1="333" x2="497.96446609407" y2="336.53553390593" style="stroke:#bbb;stroke-width:2;"/>
   <line x1="501.5" y1="333" x2="497.96446609407" y2="329.46446609407" style="stroke:#bbb;stroke-width:2;"/>
   <line x1="569" y1="451" x2="565.46446609407" y2="454.53553390593" style="stroke:#bbb;stroke-width:2;"/>
   <line x1="569" y1="451" x2="565.46446609407" y2="447.46446609407" style="stroke:#bbb;stroke-width:2;"/>
   <line x1="494" y1="293" x2="504" y2="293" style="stroke:#b0b;stroke-width:1;"/>
   <line x1="597" y1="228" x2="607" y2="228" style="stroke:#b0b;stroke-width:1;"/>
   <line x1="504" y1="293" x2="597" y2="228" style="stroke:#b0b;stroke-width:1;"/>
   <line x1="501.5" y1="293" x2="497.96446609407" y2="296.53553390593" style="stroke:#b0b;stroke-width:2;"/>
   <line x1="501.5" y1="293" x2="497.96446609407" y2="289.46446609407" style="stroke:#b0b;stroke-width:2;"/>
   <line x1="602" y1="228" x2="598.46446609407" y2="231.53553390593" style="stroke:#b0b;stroke-width:2;"/>
   <line x1="602" y1="228" x2="598.46446609407" y2="224.46446609407" style="stroke:#b0b;stroke-width:2;"/>
   <line x1="494" y1="313" x2="504" y2="313" style="stroke:#333;stroke-width:1;"/>
   <line x1="566" y1="314" x2="576" y2="314" style="stroke:#333;stroke-width:1;"/>
   <line x1="504" y1="313" x2="566" y2="314" style="stroke:#333;stroke-width:1;"/>
   <line x1="501.5" y1="313" x2="497.96446609407" y2="316.53553390593" style="stroke:#333;stroke-width:2;"/>
   <line x1="501.5" y1="313" x2="497.96446609407" y2="309.46446609407" style="stroke:#333;stroke-width:2;"/>
   <line x1="571" y1="314" x2="567.46446609407" y2="317.53553390593" style="stroke:#333;stroke-width:2;"/>
   <line x1="571" y1="314" x2="567.46446609407" y2="310.46446609407" style="stroke:#333;stroke-width:2;"/>
   <line x1="1204" y1="359" x2="1194" y2="359" style="stroke:#b0b;stroke-width:1;"/>
   <line x1="980" y1="320" x2="970" y2="320" style="stroke:#b0b;stroke-width:1;"/>
   <line x1="1194" y1="359" x2="980" y2="320" style="stroke:#b0b;stroke-width:1;"/>
   <line x1="1196.5" y1="359" x2="1200.0355339059" y2="362.53553390593" style="stroke:#b0b;stroke-width:2;"/>
   <line x1="1196.5" y1="359" x2="1200.0355339059" y2="355.46446609407" style="stroke:#b0b;stroke-width:2;"/>
   <line x1="975" y1="320" x2="978.53553390593" y2="323.53553390593" style="stroke:#b0b;stroke-width:2;"/>
   <line x1="975" y1="320" x2="978.53553390593" y2="316.46446609407" style="stroke:#b0b;stroke-width:2;"/>
   <line x1="1347" y1="379" x2="1357" y2="379" style="stroke:#b0b;stroke-width:1;"/>
   <line x1="1353" y1="121" x2="1343" y2="121" style="stroke:#b0b;stroke-width:1;"/>
   <line x1="1357" y1="379" x2="1353" y2="121" style="stroke:#b0b;stroke-width:1;"/>
   <line x1="1354.5" y1="379" x2="1350.9644660941" y2="382.53553390593" style="stroke:#b0b;stroke-width:2;"/>
   <line x1="1354.5" y1="379" x2="1350.9644660941" y2="375.46446609407" style="stroke:#b0b;stroke-width:2;"/>
   <line x1="1348" y1="121" x2="1351.5355339059" y2="124.53553390593" style="stroke:#b0b;stroke-width:2;"/>
   <line x1="1348" y1="121" x2="1351.5355339059" y2="117.46446609407" style="stroke:#b0b;stroke-width:2;"/>
   <line x1="951" y1="713" x2="941" y2="713" style="stroke:#bbb;stroke-width:1;"/>
   <line x1="779" y1="716" x2="769" y2="716" style="stroke:#bbb;stroke-width:1;"/>
   <line x1="941" y1="713" x2="779" y2="716" style="stroke:#bbb;stroke-width:1;"/>
   <line x1="943.5" y1="713" x2="947.03553390593" y2="716.53553390593" style="stroke:#bbb;stroke-width:2;"/>
   <line x1="943.5" y1="713" x2="947.03553390593" y2="709.46446609407" style="stroke:#bbb;stroke-width:2;"/>
   <line x1="774" y1="716" x2="777.53553390593" y2="719.53553390593" style="stroke:#bbb;stroke-width:2;"/>
   <line x1="774" y1="716" x2="777.53553390593" y2="712.46446609407" style="stroke:#bbb;stroke-width:2;"/>
   <line x1="1134" y1="733" x2="1144" y2="733" style="stroke:#333;stroke-width:1;"/>
   <line x1="1145" y1="849" x2="1135" y2="849" style="stroke:#333;stroke-width:1;"/>
   <line x1="1144" y1="733" x2="1145" y2="849" style="stroke:#333;stroke-width:1;"/>
   <line x1="1141.5" y1="733" x2="1137.9644660941" y2="736.53553390593" style="stroke:#333;stroke-width:2;"/>
   <line x1="1141.5" y1="733" x2="1137.9644660941" y2="729.46446609407" style="stroke:#333;stroke-width:2;"/>
   <line x1="1140" y1="849" x2="1143.5355339059" y2="852.53553390593" style="stroke:#333;stroke-width:2;"/>
   <line x1="1140" y1="849" x2="1143.5355339059" y2="845.46446609407" style="stroke:#333;stroke-width:2;"/>
   <line x1="44" y1="388" x2="34" y2="388" style="stroke:#333;stroke-width:1;"/>
   <line x1="31" y1="573" x2="41" y2="573" style="stroke:#333;stroke-width:1;"/>
   <line x1="34" y1="388" x2="31" y2="573" style="stroke:#333;stroke-width:1;"/>
   <line x1="36.5" y1="388" x2="40.035533905933" y2="391.53553390593" style="stroke:#333;stroke-width:2;"/>
   <line x1="36.5" y1="388" x2="40.035533905933" y2="384.46446609407" style="stroke:#333;stroke-width:2;"/>
   <line x1="36" y1="573" x2="32.464466094067" y2="576.53553390593" style="stroke:#333;stroke-width:2;"/>
   <line x1="36" y1="573" x2="32.464466094067" y2="569.46446609407" style="stroke:#333;stroke-width:2;"/>
   <line x1="175" y1="328" x2="185" y2="328" style="stroke:#bbb;stroke-width:1;"/>
   <line x1="241" y1="478" x2="251" y2="478" style="stroke:#bbb;stroke-width:1;"/>
   <line x1="185" y1="328" x2="241" y2="478" style="stroke:#bbb;stroke-width:1;"/>
   <line x1="182.5" y1="328" x2="178.96446609407" y2="331.53553390593" style="stroke:#bbb;stroke-width:2;"/>
   <line x1="182.5" y1="328" x2="178.96446609407" y2="324.46446609407" style="stroke:#bbb;stroke-width:2;"/>
   <line x1="246" y1="478" x2="242.46446609407" y2="481.53553390593" style="stroke:#bbb;stroke-width:2;"/>
   <line x1="246" y1="478" x2="242.46446609407" y2="474.46446609407" style="stroke:#bbb;stroke-width:2;"/>
   <line x1="43" y1="205" x2="33" y2="205" style="stroke:#bbb;stroke-width:1;"/>
   <line x1="34" y1="308" x2="44" y2="308" style="stroke:#bbb;stroke-width:1;"/>
   <line x1="33" y1="205" x2="34" y2="308" style="stroke:#bbb;stroke-width:1;"/>
   <line x1="35.5" y1="205" x2="39.035533905933" y2="208.53553390593" style="stroke:#bbb;stroke-width:2;"/>
   <line x1="35.5" y1="205" x2="39.035533905933" y2="201.46446609407" style="stroke:#bbb;stroke-width:2;"/>
   <line x1="39" y1="308" x2="35.464466094067" y2="311.53553390593" style="stroke:#bbb;stroke-width:2;"/>
   <line x1="39" y1="308" x2="35.464466094067" y2="304.46446609407" style="stroke:#bbb;stroke-width:2;"/>
   <line x1="43" y1="185" x2="33" y2="185" style="stroke:#cb0;stroke-width:1;"/>
   <line x1="36" y1="44" x2="46" y2="44" style="stroke:#cb0;stroke-width:1;"/>
   <line x1="33" y1="185" x2="36" y2="44" style="stroke:#cb0;stroke-width:1;"/>
   <line x1="35.5" y1="185" x2="39.035533905933" y2="188.53553390593" style="stroke:#cb0;stroke-width:2;"/>
   <line x1="35.5" y1="185" x2="39.035533905933" y2="181.46446609407" style="stroke:#cb0;stroke-width:2;"/>
   <line x1="41" y1="44" x2="37.464466094067" y2="47.535533905933" style="stroke:#cb0;stroke-width:2;"/>
   <line x1="41" y1="44" x2="37.464466094067" y2="40.464466094067" style="stroke:#cb0;stroke-width:2;"/>
   <line x1="890" y1="115" x2="880" y2="115" style="stroke:#0bf;stroke-width:1;"/>
   <line x1="504" y1="213" x2="494" y2="213" style="stroke:#0bf;stroke-width:1;"/>
   <line x1="880" y1="115" x2="504" y2="213" style="stroke:#0bf;stroke-width:1;"/>
   <line x1="882.5" y1="115" x2="886.03553390593" y2="118.53553390593" style="stroke:#0bf;stroke-width:2;"/>
   <line x1="882.5" y1="115" x2="886.03553390593" y2="111.46446609407" style="stroke:#0bf;stroke-width:2;"/>
   <line x1="499" y1="213" x2="502.53553390593" y2="216.53553390593" style="stroke:#0bf;stroke-width:2;"/>
   <line x1="499" y1="213" x2="502.53553390593" y2="209.46446609407" style="stroke:#0bf;stroke-width:2;"/>
   <line x1="890" y1="175" x2="880" y2="175" style="stroke:#bbb;stroke-width:1;"/>
   <line x1="882" y1="320" x2="892" y2="320" style="stroke:#bbb;stroke-width:1;"/>
   <line x1="880" y1="175" x2="882" y2="320" style="stroke:#bbb;stroke-width:1;"/>
   <line x1="882.5" y1="175" x2="886.03553390593" y2="178.53553390593" style="stroke:#bbb;stroke-width:2;"/>
   <line x1="882.5" y1="175" x2="886.03553390593" y2="171.46446609407" style="stroke:#bbb;stroke-width:2;"/>
   <line x1="887" y1="320" x2="883.46446609407" y2="323.53553390593" style="stroke:#bbb;stroke-width:2;"/>
   <line x1="887" y1="320" x2="883.46446609407" y2="316.46446609407" style="stroke:#bbb;stroke-width:2;"/>
   <line x1="1012" y1="135" x2="1022" y2="135" style="stroke:#cb0;stroke-width:1;"/>
   <line x1="1227" y1="121" x2="1237" y2="121" style="stroke:#cb0;stroke-width:1;"/>
   <line x1="1022" y1="135" x2="1227" y2="121" style="stroke:#cb0;stroke-width:1;"/>
   <line x1="1019.5" y1="135" x2="1015.9644660941" y2="138.53553390593" style="stroke:#cb0;stroke-width:2;"/>
   <line x1="1019.5" y1="135" x2="1015.9644660941" y2="131.46446609407" style="stroke:#cb0;stroke-width:2;"/>
   <line x1="1232" y1="121" x2="1228.4644660941" y2="124.53553390593" style="stroke:#cb0;stroke-width:2;"/>
   <line x1="1232" y1="121" x2="1228.4644660941" y2="117.46446609407" style="stroke:#cb0;stroke-width:2;"/>
   <line x1="1012" y1="155" x2="1022" y2="155" style="stroke:#333;stroke-width:1;"/>
   <line x1="1194" y1="319" x2="1204" y2="319" style="stroke:#333;stroke-width:1;"/>
   <line x1="1022" y1="155" x2="1194" y2="319" style="stroke:#333;stroke-width:1;"/>
   <line x1="1019.5" y1="155" x2="1015.9644660941" y2="158.53553390593" style="stroke:#333;stroke-width:2;"/>
   <line x1="1019.5" y1="155" x2="1015.9644660941" y2="151.46446609407" style="stroke:#333;stroke-width:2;"/>
   <line x1="1199" y1="319" x2="1195.4644660941" y2="322.53553390593" style="stroke:#333;stroke-width:2;"/>
   <line x1="1199" y1="319" x2="1195.4644660941" y2="315.46446609407" style="stroke:#333;stroke-width:2;"/>
   <line x1="890" y1="195" x2="880" y2="195" style="stroke:#0b0;stroke-width:1;"/>
   <line x1="491" y1="43" x2="481" y2="43" style="stroke:#0b0;stroke-width:1;"/>
   <line x1="880" y1="195" x2="491" y2="43" style="stroke:#0b0;stroke-width:1;"/>
   <line x1="882.5" y1="195" x2="886.03553390593" y2="198.53553390593" style="stroke:#0b0;stroke-width:2;"/>
   <line x1="882.5" y1="195" x2="886.03553390593" y2="191.46446609407" style="stroke:#0b0;stroke-width:2;"/>
   <line x1="486" y1="43" x2="489.53553390593" y2="46.535533905933" style="stroke:#0b0;stroke-width:2;"/>
   <line x1="486" y1="43" x2="489.53553390593" y2="39.464466094067" style="stroke:#0b0;stroke-width:2;"/>
   <line x1="688" y1="374" x2="698" y2="374" style="stroke:#b0b;stroke-width:1;"/>
   <line x1="815" y1="538" x2="825" y2="538" style="stroke:#b0b;stroke-width:1;"/>
   <line x1="698" y1="374" x2="815" y2="538" style="stroke:#b0b;stroke-width:1;"/>
   <line x1="695.5" y1="374" x2="691.96446609407" y2="377.53553390593" style="stroke:#b0b;stroke-width:2;"/>
   <line x1="695.5" y1="374" x2="691.96446609407" y2="370.46446609407" style="stroke:#b0b;stroke-width:2;"/>
   <line x1="820" y1="538" x2="816.46446609407" y2="541.53553390593" style="stroke:#b0b;stroke-width:2;"/>
   <line x1="820" y1="538" x2="816.46446609407" y2="534.46446609407" style="stroke:#b0b;stroke-width:2;"/>
   <line x1="376" y1="63" x2="366" y2="63" style="stroke:#0b0;stroke-width:1;"/>
   <line x1="366" y1="213" x2="376" y2="213" style="stroke:#0b0;stroke-width:1;"/>
   <line x1="366" y1="63" x2="366" y2="213" style="stroke:#0b0;stroke-width:1;"/>
   <line x1="368.5" y1="63" x2="372.03553390593" y2="66.535533905933" style="stroke:#0b0;stroke-width:2;"/>
   <line x1="368.5" y1="63" x2="372.03553390593" y2="59.464466094067" style="stroke:#0b0;stroke-width:2;"/>
   <line x1="371" y1="213" x2="367.46446609407" y2="216.53553390593" style="stroke:#0b0;stroke-width:2;"/>
   <line x1="371" y1="213" x2="367.46446609407" y2="209.46446609407" style="stroke:#0b0;stroke-width:2;"/>
   <line x1="376" y1="123" x2="366" y2="123" style="stroke:#c00;stroke-width:1;"/>
   <line x1="160" y1="44" x2="150" y2="44" style="stroke:#c00;stroke-width:1;"/>
   <line x1="366" y1="123" x2="160" y2="44" style="stroke:#c00;stroke-width:1;"/>
   <line x1="368.5" y1="123" x2="372.03553390593" y2="126.53553390593" style="stroke:#c00;stroke-width:2;"/>
   <line x1="368.5" y1="123" x2="372.03553390593" y2="119.46446609407" style="stroke:#c00;stroke-width:2;"/>
   <line x1="155" y1="44" x2="158.53553390593" y2="47.535533905933" style="stroke:#c00;stroke-width:2;"/>
   <line x1="155" y1="44" x2="158.53553390593" y2="40.464466094067" style="stroke:#c00;stroke-width:2;"/>
   <line x1="481" y1="103" x2="491" y2="103" style="stroke:#cb0;stroke-width:1;"/>
   <line x1="669" y1="52" x2="679" y2="52" style="stroke:#cb0;stroke-width:1;"/>
   <line x1="491" y1="103" x2="669" y2="52" style="stroke:#cb0;stroke-width:1;"/>
   <line x1="488.5" y1="103" x2="484.96446609407" y2="106.53553390593" style="stroke:#cb0;stroke-width:2;"/>
   <line x1="488.5" y1="103" x2="484.96446609407" y2="99.464466094067" style="stroke:#cb0;stroke-width:2;"/>
   <line x1="674" y1="52" x2="670.46446609407" y2="55.535533905933" style="stroke:#cb0;stroke-width:2;"/>
   <line x1="674" y1="52" x2="670.46446609407" y2="48.464466094067" style="stroke:#cb0;stroke-width:2;"/>
   <line x1="368" y1="805" x2="358" y2="805" style="stroke:#333;stroke-width:1;"/>
   <line x1="175" y1="791" x2="165" y2="791" style="stroke:#333;stroke-width:1;"/>
   <line x1="358" y1="805" x2="175" y2="791" style="stroke:#333;stroke-width:1;"/>
   <line x1="360.5" y1="805" x2="364.03553390593" y2="808.53553390593" style="stroke:#333;stroke-width:2;"/>
   <line x1="360.5" y1="805" x2="364.03553390593" y2="801.46446609407" style="stroke:#333;stroke-width:2;"/>
   <line x1="170" y1="791" x2="173.53553390593" y2="794.53553390593" style="stroke:#333;stroke-width:2;"/>
   <line x1="170" y1="791" x2="173.53553390593" y2="787.46446609407" style="stroke:#333;stroke-width:2;"/>
   <rect width="78" height="20" x="892" y="290" style="fill:#007;stroke:black;"/>
   <text width="78" height="20" x="897" y="304" style="fill:#fff;" font-family="Arial" font-size="16px"> city</text>
   <rect width="78" height="20" x="892" y="310" style="fill:#aea;stroke:black;"/>
   <text width="78" height="20" x="897" y="324" style="fill:black;" font-family="Arial" font-size="16px">idCity</text>
   <rect width="78" height="20" x="892" y="330" style="fill:none;stroke:black;"/>
   <text width="78" height="20" x="897" y="344" style="fill:black;" font-family="Arial" font-size="16px">nameCity</text>
   <rect width="78" height="20" x="892" y="350" style="fill:none;stroke:black;"/>
   <text width="78" height="20" x="897" y="364" style="fill:black;" font-family="Arial" font-size="16px">idCoun</text>
   <rect width="118" height="20" x="376" y="183" style="fill:#007;stroke:black;"/>
   <text width="118" height="20" x="381" y="197" style="fill:#fff;" font-family="Arial" font-size="16px"> client</text>
   <rect width="118" height="20" x="376" y="203" style="fill:#aea;stroke:black;"/>
   <text width="118" height="20" x="381" y="217" style="fill:black;" font-family="Arial" font-size="16px">idClient</text>
   <rect width="118" height="20" x="376" y="223" style="fill:none;stroke:black;"/>
   <text width="118" height="20" x="381" y="237" style="fill:black;" font-family="Arial" font-size="16px">nameClient</text>
   <rect width="118" height="20" x="376" y="243" style="fill:none;stroke:black;"/>
   <text width="118" height="20" x="381" y="257" style="fill:black;" font-family="Arial" font-size="16px">phoneClient</text>
   <rect width="118" height="20" x="376" y="263" style="fill:none;stroke:black;"/>
   <text width="118" height="20" x="381" y="277" style="fill:black;" font-family="Arial" font-size="16px">mailClient</text>
   <rect width="118" height="20" x="376" y="283" style="fill:none;stroke:black;"/>
   <text width="118" height="20" x="381" y="297" style="fill:black;" font-family="Arial" font-size="16px">idTypeC</text>
   <rect width="118" height="20" x="376" y="303" style="fill:none;stroke:black;"/>
   <text width="118" height="20" x="381" y="317" style="fill:black;" font-family="Arial" font-size="16px">idUser</text>
   <rect width="118" height="20" x="376" y="323" style="fill:none;stroke:black;"/>
   <text width="118" height="20" x="381" y="337" style="fill:black;" font-family="Arial" font-size="16px">idSectorMaster</text>
   <rect width="118" height="20" x="376" y="343" style="fill:none;stroke:black;"/>
   <text width="118" height="20" x="381" y="357" style="fill:black;" font-family="Arial" font-size="16px">statusClient</text>
   <rect width="106" height="20" x="1237" y="91" style="fill:#007;stroke:black;"/>
   <text width="106" height="20" x="1242" y="105" style="fill:#fff;" font-family="Arial" font-size="16px"> country</text>
   <rect width="106" height="20" x="1237" y="111" style="fill:#aea;stroke:black;"/>
   <text width="106" height="20" x="1242" y="125" style="fill:black;" font-family="Arial" font-size="16px">idCountry</text>
   <rect width="106" height="20" x="1237" y="131" style="fill:none;stroke:black;"/>
   <text width="106" height="20" x="1242" y="145" style="fill:black;" font-family="Arial" font-size="16px">nameCountry</text>
   <rect width="143" height="20" x="1204" y="289" style="fill:#007;stroke:black;"/>
   <text width="143" height="20" x="1209" y="303" style="fill:#fff;" font-family="Arial" font-size="16px"> departament</text>
   <rect width="143" height="20" x="1204" y="309" style="fill:#aea;stroke:black;"/>
   <text width="143" height="20" x="1209" y="323" style="fill:black;" font-family="Arial" font-size="16px">idDepartament</text>
   <rect width="143" height="20" x="1204" y="329" style="fill:none;stroke:black;"/>
   <text width="143" height="20" x="1209" y="343" style="fill:black;" font-family="Arial" font-size="16px">nameDepartament</text>
   <rect width="143" height="20" x="1204" y="349" style="fill:none;stroke:black;"/>
   <text width="143" height="20" x="1209" y="363" style="fill:black;" font-family="Arial" font-size="16px">City</text>
   <rect width="143" height="20" x="1204" y="369" style="fill:none;stroke:black;"/>
   <text width="143" height="20" x="1209" y="383" style="fill:black;" font-family="Arial" font-size="16px">Country</text>
   <rect width="122" height="20" x="1426" y="639" style="fill:#007;stroke:black;"/>
   <text width="122" height="20" x="1431" y="653" style="fill:#fff;" font-family="Arial" font-size="16px"> formatmaster</text>
   <rect width="122" height="20" x="1426" y="659" style="fill:#aea;stroke:black;"/>
   <text width="122" height="20" x="1431" y="673" style="fill:black;" font-family="Arial" font-size="16px">idFormatMaster</text>
   <rect width="122" height="20" x="1426" y="679" style="fill:none;stroke:black;"/>
   <text width="122" height="20" x="1431" y="693" style="fill:black;" font-family="Arial" font-size="16px">formatName</text>
   <rect width="131" height="20" x="638" y="686" style="fill:#007;stroke:black;"/>
   <text width="131" height="20" x="643" y="700" style="fill:#fff;" font-family="Arial" font-size="16px"> generalactivity</text>
   <rect width="131" height="20" x="638" y="706" style="fill:#aea;stroke:black;"/>
   <text width="131" height="20" x="643" y="720" style="fill:black;" font-family="Arial" font-size="16px">idGeneralActivity</text>
   <rect width="131" height="20" x="638" y="726" style="fill:none;stroke:black;"/>
   <text width="131" height="20" x="643" y="740" style="fill:black;" font-family="Arial" font-size="16px">activityName</text>
   <rect width="183" height="20" x="951" y="643" style="fill:#007;stroke:black;"/>
   <text width="183" height="20" x="956" y="657" style="fill:#fff;" font-family="Arial" font-size="16px"> orderactivityresponse</text>
   <rect width="183" height="20" x="951" y="663" style="fill:#aea;stroke:black;"/>
   <text width="183" height="20" x="956" y="677" style="fill:black;" font-family="Arial" font-size="16px">idOrderActivtyResponse</text>
   <rect width="183" height="20" x="951" y="683" style="fill:none;stroke:black;"/>
   <text width="183" height="20" x="956" y="697" style="fill:black;" font-family="Arial" font-size="16px">orderActivityResponse</text>
   <rect width="183" height="20" x="951" y="703" style="fill:none;stroke:black;"/>
   <text width="183" height="20" x="956" y="717" style="fill:black;" font-family="Arial" font-size="16px">idGeneralActivity</text>
   <rect width="183" height="20" x="951" y="723" style="fill:none;stroke:black;"/>
   <text width="183" height="20" x="956" y="737" style="fill:black;" font-family="Arial" font-size="16px">idResponseActivity</text>
   <rect width="99" height="20" x="66" y="761" style="fill:#007;stroke:black;"/>
   <text width="99" height="20" x="71" y="775" style="fill:#fff;" font-family="Arial" font-size="16px"> ordertype</text>
   <rect width="99" height="20" x="66" y="781" style="fill:#aea;stroke:black;"/>
   <text width="99" height="20" x="71" y="795" style="fill:black;" font-family="Arial" font-size="16px">idOrderType</text>
   <rect width="99" height="20" x="66" y="801" style="fill:none;stroke:black;"/>
   <text width="99" height="20" x="71" y="815" style="fill:black;" font-family="Arial" font-size="16px">orderType</text>
   <rect width="173" height="20" x="1414" y="495" style="fill:#007;stroke:black;"/>
   <text width="173" height="20" x="1419" y="509" style="fill:#fff;" font-family="Arial" font-size="16px"> physicaltakepolicies</text>
   <rect width="173" height="20" x="1414" y="515" style="fill:#aea;stroke:black;"/>
   <text width="173" height="20" x="1419" y="529" style="fill:black;" font-family="Arial" font-size="16px">idPhysicalTakePolicies</text>
   <rect width="173" height="20" x="1414" y="535" style="fill:none;stroke:black;"/>
   <text width="173" height="20" x="1419" y="549" style="fill:black;" font-family="Arial" font-size="16px">policieName</text>
   <rect width="131" height="20" x="44" y="278" style="fill:#007;stroke:black;"/>
   <text width="131" height="20" x="49" y="292" style="fill:#fff;" font-family="Arial" font-size="16px"> product</text>
   <rect width="131" height="20" x="44" y="298" style="fill:#aea;stroke:black;"/>
   <text width="131" height="20" x="49" y="312" style="fill:black;" font-family="Arial" font-size="16px">idProduct</text>
   <rect width="131" height="20" x="44" y="318" style="fill:none;stroke:black;"/>
   <text width="131" height="20" x="49" y="332" style="fill:black;" font-family="Arial" font-size="16px">idTypeP</text>
   <rect width="131" height="20" x="44" y="338" style="fill:none;stroke:black;"/>
   <text width="131" height="20" x="49" y="352" style="fill:black;" font-family="Arial" font-size="16px">nameProduct</text>
   <rect width="131" height="20" x="44" y="358" style="fill:none;stroke:black;"/>
   <text width="131" height="20" x="49" y="372" style="fill:black;" font-family="Arial" font-size="16px">barcode</text>
   <rect width="131" height="20" x="44" y="378" style="fill:none;stroke:black;"/>
   <text width="131" height="20" x="49" y="392" style="fill:black;" font-family="Arial" font-size="16px">idMeasurement</text>
   <rect width="131" height="20" x="44" y="398" style="fill:none;stroke:black;"/>
   <text width="131" height="20" x="49" y="412" style="fill:black;" font-family="Arial" font-size="16px">idSectionProduct</text>
   <rect width="146" height="20" x="989" y="819" style="fill:#007;stroke:black;"/>
   <text width="146" height="20" x="994" y="833" style="fill:#fff;" font-family="Arial" font-size="16px"> responseactivity</text>
   <rect width="146" height="20" x="989" y="839" style="fill:#aea;stroke:black;"/>
   <text width="146" height="20" x="994" y="853" style="fill:black;" font-family="Arial" font-size="16px">idResponseActivity</text>
   <rect width="146" height="20" x="989" y="859" style="fill:none;stroke:black;"/>
   <text width="146" height="20" x="994" y="873" style="fill:black;" font-family="Arial" font-size="16px">response</text>
   <rect width="104" height="20" x="46" y="14" style="fill:#007;stroke:black;"/>
   <text width="104" height="20" x="51" y="28" style="fill:#fff;" font-family="Arial" font-size="16px"> section</text>
   <rect width="104" height="20" x="46" y="34" style="fill:#aea;stroke:black;"/>
   <text width="104" height="20" x="51" y="48" style="fill:black;" font-family="Arial" font-size="16px">idSection</text>
   <rect width="104" height="20" x="46" y="54" style="fill:none;stroke:black;"/>
   <text width="104" height="20" x="51" y="68" style="fill:black;" font-family="Arial" font-size="16px">nameSection</text>
   <rect width="131" height="20" x="43" y="135" style="fill:#007;stroke:black;"/>
   <text width="131" height="20" x="48" y="149" style="fill:#fff;" font-family="Arial" font-size="16px"> sectionproduct</text>
   <rect width="131" height="20" x="43" y="155" style="fill:#aea;stroke:black;"/>
   <text width="131" height="20" x="48" y="169" style="fill:black;" font-family="Arial" font-size="16px">idSectionProduct</text>
   <rect width="131" height="20" x="43" y="175" style="fill:none;stroke:black;"/>
   <text width="131" height="20" x="48" y="189" style="fill:black;" font-family="Arial" font-size="16px">idSection</text>
   <rect width="131" height="20" x="43" y="195" style="fill:none;stroke:black;"/>
   <text width="131" height="20" x="48" y="209" style="fill:black;" font-family="Arial" font-size="16px">idProduct</text>
   <rect width="118" height="20" x="574" y="421" style="fill:#007;stroke:black;"/>
   <text width="118" height="20" x="579" y="435" style="fill:#fff;" font-family="Arial" font-size="16px"> sectormaster</text>
   <rect width="118" height="20" x="574" y="441" style="fill:#aea;stroke:black;"/>
   <text width="118" height="20" x="579" y="455" style="fill:black;" font-family="Arial" font-size="16px">idSectorMaster</text>
   <rect width="118" height="20" x="574" y="461" style="fill:none;stroke:black;"/>
   <text width="118" height="20" x="579" y="475" style="fill:black;" font-family="Arial" font-size="16px">sectorName</text>
   <rect width="78" height="20" x="679" y="22" style="fill:#007;stroke:black;"/>
   <text width="78" height="20" x="684" y="36" style="fill:#fff;" font-family="Arial" font-size="16px"> site</text>
   <rect width="78" height="20" x="679" y="42" style="fill:#aea;stroke:black;"/>
   <text width="78" height="20" x="684" y="56" style="fill:black;" font-family="Arial" font-size="16px">idSite</text>
   <rect width="78" height="20" x="679" y="62" style="fill:none;stroke:black;"/>
   <text width="78" height="20" x="684" y="76" style="fill:black;" font-family="Arial" font-size="16px">nameSite</text>
   <rect width="122" height="20" x="890" y="65" style="fill:#007;stroke:black;"/>
   <text width="122" height="20" x="895" y="79" style="fill:#fff;" font-family="Arial" font-size="16px"> subclient</text>
   <rect width="122" height="20" x="890" y="85" style="fill:#aea;stroke:black;"/>
   <text width="122" height="20" x="895" y="99" style="fill:black;" font-family="Arial" font-size="16px">idSubClient</text>
   <rect width="122" height="20" x="890" y="105" style="fill:none;stroke:black;"/>
   <text width="122" height="20" x="895" y="119" style="fill:black;" font-family="Arial" font-size="16px">Client</text>
   <rect width="122" height="20" x="890" y="125" style="fill:none;stroke:black;"/>
   <text width="122" height="20" x="895" y="139" style="fill:black;" font-family="Arial" font-size="16px">idCountry</text>
   <rect width="122" height="20" x="890" y="145" style="fill:none;stroke:black;"/>
   <text width="122" height="20" x="895" y="159" style="fill:black;" font-family="Arial" font-size="16px">idDepartament</text>
   <rect width="122" height="20" x="890" y="165" style="fill:none;stroke:black;"/>
   <text width="122" height="20" x="895" y="179" style="fill:black;" font-family="Arial" font-size="16px">idCity</text>
   <rect width="122" height="20" x="890" y="185" style="fill:none;stroke:black;"/>
   <text width="122" height="20" x="895" y="199" style="fill:black;" font-family="Arial" font-size="16px">idWarehouse</text>
   <rect width="122" height="20" x="890" y="205" style="fill:none;stroke:black;"/>
   <text width="122" height="20" x="895" y="219" style="fill:black;" font-family="Arial" font-size="16px">statusSubClient</text>
   <rect width="97" height="20" x="607" y="198" style="fill:#007;stroke:black;"/>
   <text width="97" height="20" x="612" y="212" style="fill:#fff;" font-family="Arial" font-size="16px"> typeclient</text>
   <rect width="97" height="20" x="607" y="218" style="fill:#aea;stroke:black;"/>
   <text width="97" height="20" x="612" y="232" style="fill:black;" font-family="Arial" font-size="16px">idTypeC</text>
   <rect width="97" height="20" x="607" y="238" style="fill:none;stroke:black;"/>
   <text width="97" height="20" x="612" y="252" style="fill:black;" font-family="Arial" font-size="16px">nameTypeC</text>
   <rect width="96" height="20" x="251" y="448" style="fill:#007;stroke:black;"/>
   <text width="96" height="20" x="256" y="462" style="fill:#fff;" font-family="Arial" font-size="16px"> typeproduct</text>
   <rect width="96" height="20" x="251" y="468" style="fill:#aea;stroke:black;"/>
   <text width="96" height="20" x="256" y="482" style="fill:black;" font-family="Arial" font-size="16px">idTypeP</text>
   <rect width="96" height="20" x="251" y="488" style="fill:none;stroke:black;"/>
   <text width="96" height="20" x="256" y="502" style="fill:black;" font-family="Arial" font-size="16px">nameTypeP</text>
   <rect width="92" height="20" x="825" y="508" style="fill:#007;stroke:black;"/>
   <text width="92" height="20" x="830" y="522" style="fill:#fff;" font-family="Arial" font-size="16px"> typeuser</text>
   <rect width="92" height="20" x="825" y="528" style="fill:#aea;stroke:black;"/>
   <text width="92" height="20" x="830" y="542" style="fill:black;" font-family="Arial" font-size="16px">idTypeUser</text>
   <rect width="92" height="20" x="825" y="548" style="fill:none;stroke:black;"/>
   <text width="92" height="20" x="830" y="562" style="fill:black;" font-family="Arial" font-size="16px">typeUser</text>
   <rect width="138" height="20" x="41" y="543" style="fill:#007;stroke:black;"/>
   <text width="138" height="20" x="46" y="557" style="fill:#fff;" font-family="Arial" font-size="16px"> unitymeasurement</text>
   <rect width="138" height="20" x="41" y="563" style="fill:#aea;stroke:black;"/>
   <text width="138" height="20" x="46" y="577" style="fill:black;" font-family="Arial" font-size="16px">idMeasurement</text>
   <rect width="138" height="20" x="41" y="583" style="fill:none;stroke:black;"/>
   <text width="138" height="20" x="46" y="597" style="fill:black;" font-family="Arial" font-size="16px">typeMeasurement</text>
   <rect width="112" height="20" x="576" y="284" style="fill:#007;stroke:black;"/>
   <text width="112" height="20" x="581" y="298" style="fill:#fff;" font-family="Arial" font-size="16px"> usersystem</text>
   <rect width="112" height="20" x="576" y="304" style="fill:#aea;stroke:black;"/>
   <text width="112" height="20" x="581" y="318" style="fill:black;" font-family="Arial" font-size="16px">idUser</text>
   <rect width="112" height="20" x="576" y="324" style="fill:none;stroke:black;"/>
   <text width="112" height="20" x="581" y="338" style="fill:black;" font-family="Arial" font-size="16px">userName</text>
   <rect width="112" height="20" x="576" y="344" style="fill:none;stroke:black;"/>
   <text width="112" height="20" x="581" y="358" style="fill:black;" font-family="Arial" font-size="16px">userPassword</text>
   <rect width="112" height="20" x="576" y="364" style="fill:none;stroke:black;"/>
   <text width="112" height="20" x="581" y="378" style="fill:black;" font-family="Arial" font-size="16px">idTypeUser</text>
   <rect width="105" height="20" x="376" y="13" style="fill:#007;stroke:black;"/>
   <text width="105" height="20" x="381" y="27" style="fill:#fff;" font-family="Arial" font-size="16px"> warehouse</text>
   <rect width="105" height="20" x="376" y="33" style="fill:#aea;stroke:black;"/>
   <text width="105" height="20" x="381" y="47" style="fill:black;" font-family="Arial" font-size="16px">idWarehouse</text>
   <rect width="105" height="20" x="376" y="53" style="fill:none;stroke:black;"/>
   <text width="105" height="20" x="381" y="67" style="fill:black;" font-family="Arial" font-size="16px">idClient</text>
   <rect width="105" height="20" x="376" y="73" style="fill:none;stroke:black;"/>
   <text width="105" height="20" x="381" y="87" style="fill:black;" font-family="Arial" font-size="16px">direction</text>
   <rect width="105" height="20" x="376" y="93" style="fill:none;stroke:black;"/>
   <text width="105" height="20" x="381" y="107" style="fill:black;" font-family="Arial" font-size="16px">idSite</text>
   <rect width="105" height="20" x="376" y="113" style="fill:none;stroke:black;"/>
   <text width="105" height="20" x="381" y="127" style="fill:black;" font-family="Arial" font-size="16px">idSect</text>
   <rect width="101" height="20" x="368" y="735" style="fill:#007;stroke:black;"/>
   <text width="101" height="20" x="373" y="749" style="fill:#fff;" font-family="Arial" font-size="16px"> workorder</text>
   <rect width="101" height="20" x="368" y="755" style="fill:#aea;stroke:black;"/>
   <text width="101" height="20" x="373" y="769" style="fill:black;" font-family="Arial" font-size="16px">idWorkOrder</text>
   <rect width="101" height="20" x="368" y="775" style="fill:none;stroke:black;"/>
   <text width="101" height="20" x="373" y="789" style="fill:black;" font-family="Arial" font-size="16px">workName</text>
   <rect width="101" height="20" x="368" y="795" style="fill:none;stroke:black;"/>
   <text width="101" height="20" x="373" y="809" style="fill:black;" font-family="Arial" font-size="16px">idOrderType</text>
</svg>
